<svg xmlns="http://www.w3.org/2000/svg" width="3680" height="2948" viewBox="0 0 3680 2948">
<defs>
<marker id="arrow" viewBox="0 0 10 10" refX="9" refY="5" markerWidth="7" markerHeight="7" orient="auto-start-reverse"><path d="M 0 0 L 10 5 L 0 10 z" fill="#768293"/></marker>
<filter id="shadow" x="-10%" y="-20%" width="130%" height="150%"><feDropShadow dx="0" dy="2" stdDeviation="2" flood-color="#101828" flood-opacity="0.12"/></filter>
</defs>
<rect width="100%" height="100%" fill="#f7f8fa"/>
<text x="70" y="54" font-family="Inter, Arial, sans-serif" font-size="30" font-weight="700" fill="#111827">HereticSheets DB Entity Tree</text>
<text x="70" y="84" font-family="Inter, Arial, sans-serif" font-size="15" fill="#475467">Solid lines show containment/ownership. Counts are current rows in data/heretic_db.sqlite.</text>
<rect x="2920" y="38" width="18" height="18" rx="4" fill="#e8f6ee" stroke="#17834f"/>
<text x="2946" y="52" font-family="Inter, Arial, sans-serif" font-size="12" fill="#344054">Army catalog</text>
<rect x="3065" y="38" width="18" height="18" rx="4" fill="#e4f3f8" stroke="#15718f"/>
<text x="3091" y="52" font-family="Inter, Arial, sans-serif" font-size="12" fill="#344054">Roster state</text>
<rect x="3210" y="38" width="18" height="18" rx="4" fill="#fff2d6" stroke="#b7791f"/>
<text x="3236" y="52" font-family="Inter, Arial, sans-serif" font-size="12" fill="#344054">Missions</text>
<rect x="3355" y="38" width="18" height="18" rx="4" fill="#eef2f6" stroke="#667085"/>
<text x="3381" y="52" font-family="Inter, Arial, sans-serif" font-size="12" fill="#344054">Shared lookups</text>
<rect x="3500" y="38" width="18" height="18" rx="4" fill="#fce8ef" stroke="#b83266"/>
<text x="3526" y="52" font-family="Inter, Arial, sans-serif" font-size="12" fill="#344054">Technical</text>
<path d="M 425.0 1741.5 C 475.0 1741.5, 475.0 889.0, 517.0 889.0" fill="none" stroke="#17834f" stroke-width="1.4" opacity="0.62" marker-end="url(#arrow)"/>
<path d="M 425.0 1741.5 C 475.0 1741.5, 475.0 1670.0, 517.0 1670.0" fill="none" stroke="#8b97a8" stroke-width="1.4" opacity="0.62" marker-end="url(#arrow)"/>
<path d="M 425.0 1741.5 C 475.0 1741.5, 475.0 2198.0, 517.0 2198.0" fill="none" stroke="#8b97a8" stroke-width="1.4" opacity="0.62" marker-end="url(#arrow)"/>
<path d="M 425.0 1741.5 C 475.0 1741.5, 475.0 2594.0, 517.0 2594.0" fill="none" stroke="#8b97a8" stroke-width="1.4" opacity="0.62" marker-end="url(#arrow)"/>
<path d="M 880.0 889.0 C 930.0 889.0, 930.0 889.0, 972.0 889.0" fill="none" stroke="#17834f" stroke-width="1.4" opacity="0.62" marker-end="url(#arrow)"/>
<path d="M 1335.0 889.0 C 1385.0 889.0, 1385.0 889.0, 1427.0 889.0" fill="none" stroke="#17834f" stroke-width="1.4" opacity="0.62" marker-end="url(#arrow)"/>
<path d="M 1790.0 889.0 C 1840.0 889.0, 1840.0 416.0, 1882.0 416.0" fill="none" stroke="#17834f" stroke-width="1.4" opacity="0.62" marker-end="url(#arrow)"/>
<path d="M 1790.0 889.0 C 1840.0 889.0, 1840.0 878.0, 1882.0 878.0" fill="none" stroke="#17834f" stroke-width="1.4" opacity="0.62" marker-end="url(#arrow)"/>
<path d="M 1790.0 889.0 C 1840.0 889.0, 1840.0 1142.0, 1882.0 1142.0" fill="none" stroke="#17834f" stroke-width="1.4" opacity="0.62" marker-end="url(#arrow)"/>
<path d="M 1790.0 889.0 C 1840.0 889.0, 1840.0 1274.0, 1882.0 1274.0" fill="none" stroke="#17834f" stroke-width="1.4" opacity="0.62" marker-end="url(#arrow)"/>
<path d="M 1790.0 889.0 C 1840.0 889.0, 1840.0 1362.0, 1882.0 1362.0" fill="none" stroke="#17834f" stroke-width="1.4" opacity="0.62" marker-end="url(#arrow)"/>
<path d="M 2245.0 416.0 C 2295.0 416.0, 2295.0 174.0, 2337.0 174.0" fill="none" stroke="#17834f" stroke-width="1.4" opacity="0.62" marker-end="url(#arrow)"/>
<path d="M 2245.0 416.0 C 2295.0 416.0, 2295.0 306.0, 2337.0 306.0" fill="none" stroke="#17834f" stroke-width="1.4" opacity="0.62" marker-end="url(#arrow)"/>
<path d="M 2245.0 416.0 C 2295.0 416.0, 2295.0 394.0, 2337.0 394.0" fill="none" stroke="#17834f" stroke-width="1.4" opacity="0.62" marker-end="url(#arrow)"/>
<path d="M 2245.0 416.0 C 2295.0 416.0, 2295.0 482.0, 2337.0 482.0" fill="none" stroke="#17834f" stroke-width="1.4" opacity="0.62" marker-end="url(#arrow)"/>
<path d="M 2245.0 416.0 C 2295.0 416.0, 2295.0 570.0, 2337.0 570.0" fill="none" stroke="#17834f" stroke-width="1.4" opacity="0.62" marker-end="url(#arrow)"/>
<path d="M 2245.0 416.0 C 2295.0 416.0, 2295.0 658.0, 2337.0 658.0" fill="none" stroke="#17834f" stroke-width="1.4" opacity="0.62" marker-end="url(#arrow)"/>
<path d="M 2700.0 174.0 C 2750.0 174.0, 2750.0 130.0, 2792.0 130.0" fill="none" stroke="#17834f" stroke-width="1.4" opacity="0.62" marker-end="url(#arrow)"/>
<path d="M 2700.0 174.0 C 2750.0 174.0, 2750.0 218.0, 2792.0 218.0" fill="none" stroke="#17834f" stroke-width="1.4" opacity="0.62" marker-end="url(#arrow)"/>
<path d="M 2700.0 394.0 C 2750.0 394.0, 2750.0 394.0, 2792.0 394.0" fill="none" stroke="#17834f" stroke-width="1.4" opacity="0.62" marker-end="url(#arrow)"/>
<path d="M 2700.0 482.0 C 2750.0 482.0, 2750.0 482.0, 2792.0 482.0" fill="none" stroke="#17834f" stroke-width="1.4" opacity="0.62" marker-end="url(#arrow)"/>
<path d="M 2245.0 878.0 C 2295.0 878.0, 2295.0 746.0, 2337.0 746.0" fill="none" stroke="#17834f" stroke-width="1.4" opacity="0.62" marker-end="url(#arrow)"/>
<path d="M 2245.0 878.0 C 2295.0 878.0, 2295.0 834.0, 2337.0 834.0" fill="none" stroke="#17834f" stroke-width="1.4" opacity="0.62" marker-end="url(#arrow)"/>
<path d="M 2245.0 878.0 C 2295.0 878.0, 2295.0 922.0, 2337.0 922.0" fill="none" stroke="#17834f" stroke-width="1.4" opacity="0.62" marker-end="url(#arrow)"/>
<path d="M 2245.0 878.0 C 2295.0 878.0, 2295.0 1010.0, 2337.0 1010.0" fill="none" stroke="#17834f" stroke-width="1.4" opacity="0.62" marker-end="url(#arrow)"/>
<path d="M 2245.0 1142.0 C 2295.0 1142.0, 2295.0 1098.0, 2337.0 1098.0" fill="none" stroke="#17834f" stroke-width="1.4" opacity="0.62" marker-end="url(#arrow)"/>
<path d="M 2245.0 1142.0 C 2295.0 1142.0, 2295.0 1186.0, 2337.0 1186.0" fill="none" stroke="#17834f" stroke-width="1.4" opacity="0.62" marker-end="url(#arrow)"/>
<path d="M 880.0 1670.0 C 930.0 1670.0, 930.0 1450.0, 972.0 1450.0" fill="none" stroke="#8b97a8" stroke-width="1.4" opacity="0.62" marker-end="url(#arrow)"/>
<path d="M 880.0 1670.0 C 930.0 1670.0, 930.0 1692.0, 972.0 1692.0" fill="none" stroke="#8b97a8" stroke-width="1.4" opacity="0.62" marker-end="url(#arrow)"/>
<path d="M 880.0 1670.0 C 930.0 1670.0, 930.0 1890.0, 972.0 1890.0" fill="none" stroke="#8b97a8" stroke-width="1.4" opacity="0.62" marker-end="url(#arrow)"/>
<path d="M 1335.0 1692.0 C 1385.0 1692.0, 1385.0 1582.0, 1427.0 1582.0" fill="none" stroke="#8b97a8" stroke-width="1.4" opacity="0.62" marker-end="url(#arrow)"/>
<path d="M 1335.0 1692.0 C 1385.0 1692.0, 1385.0 1714.0, 1427.0 1714.0" fill="none" stroke="#8b97a8" stroke-width="1.4" opacity="0.62" marker-end="url(#arrow)"/>
<path d="M 1335.0 1692.0 C 1385.0 1692.0, 1385.0 1802.0, 1427.0 1802.0" fill="none" stroke="#8b97a8" stroke-width="1.4" opacity="0.62" marker-end="url(#arrow)"/>
<path d="M 1790.0 1582.0 C 1840.0 1582.0, 1840.0 1538.0, 1882.0 1538.0" fill="none" stroke="#8b97a8" stroke-width="1.4" opacity="0.62" marker-end="url(#arrow)"/>
<path d="M 1790.0 1582.0 C 1840.0 1582.0, 1840.0 1626.0, 1882.0 1626.0" fill="none" stroke="#8b97a8" stroke-width="1.4" opacity="0.62" marker-end="url(#arrow)"/>
<path d="M 880.0 2198.0 C 930.0 2198.0, 930.0 2066.0, 972.0 2066.0" fill="none" stroke="#8b97a8" stroke-width="1.4" opacity="0.62" marker-end="url(#arrow)"/>
<path d="M 880.0 2198.0 C 930.0 2198.0, 930.0 2242.0, 972.0 2242.0" fill="none" stroke="#8b97a8" stroke-width="1.4" opacity="0.62" marker-end="url(#arrow)"/>
<path d="M 880.0 2198.0 C 930.0 2198.0, 930.0 2330.0, 972.0 2330.0" fill="none" stroke="#8b97a8" stroke-width="1.4" opacity="0.62" marker-end="url(#arrow)"/>
<path d="M 1335.0 2066.0 C 1385.0 2066.0, 1385.0 1978.0, 1427.0 1978.0" fill="none" stroke="#8b97a8" stroke-width="1.4" opacity="0.62" marker-end="url(#arrow)"/>
<path d="M 1335.0 2066.0 C 1385.0 2066.0, 1385.0 2066.0, 1427.0 2066.0" fill="none" stroke="#8b97a8" stroke-width="1.4" opacity="0.62" marker-end="url(#arrow)"/>
<path d="M 1335.0 2066.0 C 1385.0 2066.0, 1385.0 2154.0, 1427.0 2154.0" fill="none" stroke="#8b97a8" stroke-width="1.4" opacity="0.62" marker-end="url(#arrow)"/>
<path d="M 1335.0 2242.0 C 1385.0 2242.0, 1385.0 2242.0, 1427.0 2242.0" fill="none" stroke="#8b97a8" stroke-width="1.4" opacity="0.62" marker-end="url(#arrow)"/>
<path d="M 1790.0 2242.0 C 1840.0 2242.0, 1840.0 2242.0, 1882.0 2242.0" fill="none" stroke="#8b97a8" stroke-width="1.4" opacity="0.62" marker-end="url(#arrow)"/>
<path d="M 2245.0 2242.0 C 2295.0 2242.0, 2295.0 2242.0, 2337.0 2242.0" fill="none" stroke="#8b97a8" stroke-width="1.4" opacity="0.62" marker-end="url(#arrow)"/>
<path d="M 880.0 2594.0 C 930.0 2594.0, 930.0 2418.0, 972.0 2418.0" fill="none" stroke="#8b97a8" stroke-width="1.4" opacity="0.62" marker-end="url(#arrow)"/>
<path d="M 880.0 2594.0 C 930.0 2594.0, 930.0 2506.0, 972.0 2506.0" fill="none" stroke="#8b97a8" stroke-width="1.4" opacity="0.62" marker-end="url(#arrow)"/>
<path d="M 880.0 2594.0 C 930.0 2594.0, 930.0 2594.0, 972.0 2594.0" fill="none" stroke="#8b97a8" stroke-width="1.4" opacity="0.62" marker-end="url(#arrow)"/>
<path d="M 880.0 2594.0 C 930.0 2594.0, 930.0 2682.0, 972.0 2682.0" fill="none" stroke="#8b97a8" stroke-width="1.4" opacity="0.62" marker-end="url(#arrow)"/>
<path d="M 880.0 2594.0 C 930.0 2594.0, 930.0 2770.0, 972.0 2770.0" fill="none" stroke="#8b97a8" stroke-width="1.4" opacity="0.62" marker-end="url(#arrow)"/>
<path d="M 1335.0 2594.0 C 1385.0 2594.0, 1385.0 2594.0, 1427.0 2594.0" fill="none" stroke="#8b97a8" stroke-width="1.4" opacity="0.62" marker-end="url(#arrow)"/>
<path d="M 1790.0 2594.0 C 1840.0 2594.0, 1840.0 2594.0, 1882.0 2594.0" fill="none" stroke="#8b97a8" stroke-width="1.4" opacity="0.62" marker-end="url(#arrow)"/>
<path d="M 1335.0 2506.0 C 1385.0 2506.0, 1385.0 2506.0, 1427.0 2506.0" fill="none" stroke="#8b97a8" stroke-width="1.4" opacity="0.62" marker-end="url(#arrow)"/>
<g filter="url(#shadow)"><rect x="2800.0" y="100.0" width="355" height="60.0" rx="8" fill="#e8f6ee" stroke="#17834f" stroke-width="1.2"/></g>
<title>miniature_keyword
8,773</title>
<text x="2816.0" y="126.0" font-family="Inter, Arial, sans-serif" font-size="14" font-weight="700" fill="#122018">miniature_keyword</text>
<text x="2816.0" y="144.0" font-family="Inter, Arial, sans-serif" font-size="12" font-weight="500" fill="#475467">8,773</text>
<g filter="url(#shadow)"><rect x="2345.0" y="144.0" width="355" height="60.0" rx="8" fill="#e8f6ee" stroke="#17834f" stroke-width="1.2"/></g>
<title>miniature
1,569</title>
<text x="2361.0" y="170.0" font-family="Inter, Arial, sans-serif" font-size="14" font-weight="700" fill="#122018">miniature</text>
<text x="2361.0" y="188.0" font-family="Inter, Arial, sans-serif" font-size="12" font-weight="500" fill="#475467">1,569</text>
<g filter="url(#shadow)"><rect x="2800.0" y="188.0" width="355" height="60.0" rx="8" fill="#e8f6ee" stroke="#17834f" stroke-width="1.2"/></g>
<title>base_miniature_loadout
1,300</title>
<text x="2816.0" y="214.0" font-family="Inter, Arial, sans-serif" font-size="14" font-weight="700" fill="#122018">base_miniature_loadout</text>
<text x="2816.0" y="232.0" font-family="Inter, Arial, sans-serif" font-size="12" font-weight="500" fill="#475467">1,300</text>
<g filter="url(#shadow)"><rect x="2345.0" y="276.0" width="355" height="60.0" rx="8" fill="#e8f6ee" stroke="#17834f" stroke-width="1.2"/></g>
<title>unit_composition
1,516</title>
<text x="2361.0" y="302.0" font-family="Inter, Arial, sans-serif" font-size="14" font-weight="700" fill="#122018">unit_composition</text>
<text x="2361.0" y="320.0" font-family="Inter, Arial, sans-serif" font-size="12" font-weight="500" fill="#475467">1,516</text>
<g filter="url(#shadow)"><rect x="2345.0" y="364.0" width="355" height="60.0" rx="8" fill="#e8f6ee" stroke="#17834f" stroke-width="1.2"/></g>
<title>wargear_option_group
3,025</title>
<text x="2361.0" y="390.0" font-family="Inter, Arial, sans-serif" font-size="14" font-weight="700" fill="#122018">wargear_option_group</text>
<text x="2361.0" y="408.0" font-family="Inter, Arial, sans-serif" font-size="12" font-weight="500" fill="#475467">3,025</text>
<g filter="url(#shadow)"><rect x="2800.0" y="364.0" width="355" height="60.0" rx="8" fill="#e8f6ee" stroke="#17834f" stroke-width="1.2"/></g>
<title>wargear_option
6,322</title>
<text x="2816.0" y="390.0" font-family="Inter, Arial, sans-serif" font-size="14" font-weight="700" fill="#122018">wargear_option</text>
<text x="2816.0" y="408.0" font-family="Inter, Arial, sans-serif" font-size="12" font-weight="500" fill="#475467">6,322</text>
<g filter="url(#shadow)"><rect x="1890.0" y="386.0" width="355" height="60.0" rx="8" fill="#e8f6ee" stroke="#17834f" stroke-width="1.2"/></g>
<title>datasheet
1,142</title>
<text x="1906.0" y="412.0" font-family="Inter, Arial, sans-serif" font-size="14" font-weight="700" fill="#122018">datasheet</text>
<text x="1906.0" y="430.0" font-family="Inter, Arial, sans-serif" font-size="12" font-weight="500" fill="#475467">1,142</text>
<g filter="url(#shadow)"><rect x="2345.0" y="452.0" width="355" height="60.0" rx="8" fill="#e8f6ee" stroke="#17834f" stroke-width="1.2"/></g>
<title>loadout / limited / all-model choices</title>
<text x="2361.0" y="478.0" font-family="Inter, Arial, sans-serif" font-size="14" font-weight="700" fill="#122018">loadout / limited / all-model</text>
<text x="2361.0" y="496.0" font-family="Inter, Arial, sans-serif" font-size="12" font-weight="500" fill="#475467">choices</text>
<g filter="url(#shadow)"><rect x="2800.0" y="452.0" width="355" height="60.0" rx="8" fill="#e8f6ee" stroke="#17834f" stroke-width="1.2"/></g>
<title>*_choice_wargear_item
9,070</title>
<text x="2816.0" y="478.0" font-family="Inter, Arial, sans-serif" font-size="14" font-weight="700" fill="#122018">*_choice_wargear_item</text>
<text x="2816.0" y="496.0" font-family="Inter, Arial, sans-serif" font-size="12" font-weight="500" fill="#475467">9,070</text>
<g filter="url(#shadow)"><rect x="2345.0" y="546.0" width="355" height="48.0" rx="8" fill="#e8f6ee" stroke="#17834f" stroke-width="1.2"/></g>
<title>rules / damage / points / saves</title>
<text x="2361.0" y="575.0" font-family="Inter, Arial, sans-serif" font-size="14" font-weight="700" fill="#122018">rules / damage / points / saves</text>
<g filter="url(#shadow)"><rect x="2345.0" y="628.0" width="355" height="60.0" rx="8" fill="#e8f6ee" stroke="#17834f" stroke-width="1.2"/></g>
<title>datasheet_bodyguard_group
1,266</title>
<text x="2361.0" y="654.0" font-family="Inter, Arial, sans-serif" font-size="14" font-weight="700" fill="#122018">datasheet_bodyguard_group</text>
<text x="2361.0" y="672.0" font-family="Inter, Arial, sans-serif" font-size="12" font-weight="500" fill="#475467">1,266</text>
<g filter="url(#shadow)"><rect x="2345.0" y="716.0" width="355" height="60.0" rx="8" fill="#e8f6ee" stroke="#17834f" stroke-width="1.2"/></g>
<title>detachment_rule
306</title>
<text x="2361.0" y="742.0" font-family="Inter, Arial, sans-serif" font-size="14" font-weight="700" fill="#122018">detachment_rule</text>
<text x="2361.0" y="760.0" font-family="Inter, Arial, sans-serif" font-size="12" font-weight="500" fill="#475467">306</text>
<g filter="url(#shadow)"><rect x="2345.0" y="804.0" width="355" height="60.0" rx="8" fill="#e8f6ee" stroke="#17834f" stroke-width="1.2"/></g>
<title>allegiance_ability_group -&gt; ability</title>
<text x="2361.0" y="830.0" font-family="Inter, Arial, sans-serif" font-size="14" font-weight="700" fill="#122018">allegiance_ability_group -&gt;</text>
<text x="2361.0" y="848.0" font-family="Inter, Arial, sans-serif" font-size="12" font-weight="500" fill="#475467">ability</text>
<g filter="url(#shadow)"><rect x="1890.0" y="848.0" width="355" height="60.0" rx="8" fill="#e8f6ee" stroke="#17834f" stroke-width="1.2"/></g>
<title>detachment
290</title>
<text x="1906.0" y="874.0" font-family="Inter, Arial, sans-serif" font-size="14" font-weight="700" fill="#122018">detachment</text>
<text x="1906.0" y="892.0" font-family="Inter, Arial, sans-serif" font-size="12" font-weight="500" fill="#475467">290</text>
<g filter="url(#shadow)"><rect x="980.0" y="859.0" width="355" height="60.0" rx="8" fill="#e8f6ee" stroke="#17834f" stroke-width="1.2"/></g>
<title>faction_keyword
43</title>
<text x="996.0" y="885.0" font-family="Inter, Arial, sans-serif" font-size="14" font-weight="700" fill="#122018">faction_keyword</text>
<text x="996.0" y="903.0" font-family="Inter, Arial, sans-serif" font-size="12" font-weight="500" fill="#475467">43</text>
<g filter="url(#shadow)"><rect x="1435.0" y="859.0" width="355" height="60.0" rx="8" fill="#e8f6ee" stroke="#17834f" stroke-width="1.2"/></g>
<title>publication
69</title>
<text x="1451.0" y="885.0" font-family="Inter, Arial, sans-serif" font-size="14" font-weight="700" fill="#122018">publication</text>
<text x="1451.0" y="903.0" font-family="Inter, Arial, sans-serif" font-size="12" font-weight="500" fill="#475467">69</text>
<g filter="url(#shadow)"><rect x="525.0" y="865.0" width="355" height="48.0" rx="8" fill="#e8f6ee" stroke="#17834f" stroke-width="1.2"/></g>
<title>Army catalog</title>
<text x="541.0" y="894.0" font-family="Inter, Arial, sans-serif" font-size="14" font-weight="700" fill="#122018">Army catalog</text>
<g filter="url(#shadow)"><rect x="2345.0" y="892.0" width="355" height="60.0" rx="8" fill="#e8f6ee" stroke="#17834f" stroke-width="1.2"/></g>
<title>allied_faction
21</title>
<text x="2361.0" y="918.0" font-family="Inter, Arial, sans-serif" font-size="14" font-weight="700" fill="#122018">allied_faction</text>
<text x="2361.0" y="936.0" font-family="Inter, Arial, sans-serif" font-size="12" font-weight="500" fill="#475467">21</text>
<g filter="url(#shadow)"><rect x="2345.0" y="986.0" width="355" height="48.0" rx="8" fill="#e8f6ee" stroke="#17834f" stroke-width="1.2"/></g>
<title>detachment_* restrictions</title>
<text x="2361.0" y="1015.0" font-family="Inter, Arial, sans-serif" font-size="14" font-weight="700" fill="#122018">detachment_* restrictions</text>
<g filter="url(#shadow)"><rect x="2345.0" y="1068.0" width="355" height="60.0" rx="8" fill="#e8f6ee" stroke="#17834f" stroke-width="1.2"/></g>
<title>required/excluded keyword groups</title>
<text x="2361.0" y="1094.0" font-family="Inter, Arial, sans-serif" font-size="14" font-weight="700" fill="#122018">required/excluded keyword</text>
<text x="2361.0" y="1112.0" font-family="Inter, Arial, sans-serif" font-size="12" font-weight="500" fill="#475467">groups</text>
<g filter="url(#shadow)"><rect x="1890.0" y="1112.0" width="355" height="60.0" rx="8" fill="#e8f6ee" stroke="#17834f" stroke-width="1.2"/></g>
<title>enhancement
957</title>
<text x="1906.0" y="1138.0" font-family="Inter, Arial, sans-serif" font-size="14" font-weight="700" fill="#122018">enhancement</text>
<text x="1906.0" y="1156.0" font-family="Inter, Arial, sans-serif" font-size="12" font-weight="500" fill="#475467">957</text>
<g filter="url(#shadow)"><rect x="2345.0" y="1162.0" width="355" height="48.0" rx="8" fill="#e8f6ee" stroke="#17834f" stroke-width="1.2"/></g>
<title>enhancement_bodyguard_group</title>
<text x="2361.0" y="1191.0" font-family="Inter, Arial, sans-serif" font-size="14" font-weight="700" fill="#122018">enhancement_bodyguard_group</text>
<g filter="url(#shadow)"><rect x="1890.0" y="1244.0" width="355" height="60.0" rx="8" fill="#e8f6ee" stroke="#17834f" stroke-width="1.2"/></g>
<title>stratagem
1,432</title>
<text x="1906.0" y="1270.0" font-family="Inter, Arial, sans-serif" font-size="14" font-weight="700" fill="#122018">stratagem</text>
<text x="1906.0" y="1288.0" font-family="Inter, Arial, sans-serif" font-size="12" font-weight="500" fill="#475467">1,432</text>
<g filter="url(#shadow)"><rect x="1890.0" y="1338.0" width="355" height="48.0" rx="8" fill="#e8f6ee" stroke="#17834f" stroke-width="1.2"/></g>
<title>army_rule / rule_section / faq</title>
<text x="1906.0" y="1367.0" font-family="Inter, Arial, sans-serif" font-size="14" font-weight="700" fill="#122018">army_rule / rule_section / faq</text>
<g filter="url(#shadow)"><rect x="980.0" y="1426.0" width="355" height="48.0" rx="8" fill="#ffffff" stroke="#8b97a8" stroke-width="1.2"/></g>
<title>roster_detachment -&gt; detachment</title>
<text x="996.0" y="1455.0" font-family="Inter, Arial, sans-serif" font-size="14" font-weight="700" fill="#1f2937">roster_detachment -&gt; detachment</text>
<g filter="url(#shadow)"><rect x="1890.0" y="1508.0" width="355" height="60.0" rx="8" fill="#ffffff" stroke="#8b97a8" stroke-width="1.2"/></g>
<title>roster_unit_miniature_wargear_option</title>
<text x="1906.0" y="1534.0" font-family="Inter, Arial, sans-serif" font-size="14" font-weight="700" fill="#1f2937">roster_unit_miniature_</text>
<text x="1906.0" y="1552.0" font-family="Inter, Arial, sans-serif" font-size="12" font-weight="500" fill="#475467">wargear_option</text>
<g filter="url(#shadow)"><rect x="1435.0" y="1552.0" width="355" height="60.0" rx="8" fill="#ffffff" stroke="#8b97a8" stroke-width="1.2"/></g>
<title>roster_unit_miniature -&gt; miniature</title>
<text x="1451.0" y="1578.0" font-family="Inter, Arial, sans-serif" font-size="14" font-weight="700" fill="#1f2937">roster_unit_miniature -&gt;</text>
<text x="1451.0" y="1596.0" font-family="Inter, Arial, sans-serif" font-size="12" font-weight="500" fill="#475467">miniature</text>
<g filter="url(#shadow)"><rect x="1890.0" y="1596.0" width="355" height="60.0" rx="8" fill="#ffffff" stroke="#8b97a8" stroke-width="1.2"/></g>
<title>roster_unit_miniature_enhancement</title>
<text x="1906.0" y="1622.0" font-family="Inter, Arial, sans-serif" font-size="14" font-weight="700" fill="#1f2937">roster_unit_miniature_</text>
<text x="1906.0" y="1640.0" font-family="Inter, Arial, sans-serif" font-size="12" font-weight="500" fill="#475467">enhancement</text>
<g filter="url(#shadow)"><rect x="525.0" y="1646.0" width="355" height="48.0" rx="8" fill="#ffffff" stroke="#8b97a8" stroke-width="1.2"/></g>
<title>Roster state</title>
<text x="541.0" y="1675.0" font-family="Inter, Arial, sans-serif" font-size="14" font-weight="700" fill="#1f2937">Roster state</text>
<g filter="url(#shadow)"><rect x="980.0" y="1668.0" width="355" height="48.0" rx="8" fill="#ffffff" stroke="#8b97a8" stroke-width="1.2"/></g>
<title>roster_unit -&gt; datasheet</title>
<text x="996.0" y="1697.0" font-family="Inter, Arial, sans-serif" font-size="14" font-weight="700" fill="#1f2937">roster_unit -&gt; datasheet</text>
<g filter="url(#shadow)"><rect x="1435.0" y="1690.0" width="355" height="48.0" rx="8" fill="#ffffff" stroke="#8b97a8" stroke-width="1.2"/></g>
<title>roster_unit_wargear_option</title>
<text x="1451.0" y="1719.0" font-family="Inter, Arial, sans-serif" font-size="14" font-weight="700" fill="#1f2937">roster_unit_wargear_option</text>
<g filter="url(#shadow)"><rect x="70.0" y="1711.5" width="355" height="60.0" rx="8" fill="#111827" stroke="#111827" stroke-width="1.2"/></g>
<title>HereticSheets DB
145 tables</title>
<text x="86.0" y="1737.5" font-family="Inter, Arial, sans-serif" font-size="14" font-weight="700" fill="#ffffff">HereticSheets DB</text>
<text x="86.0" y="1755.5" font-family="Inter, Arial, sans-serif" font-size="12" font-weight="500" fill="#475467">145 tables</text>
<g filter="url(#shadow)"><rect x="1435.0" y="1778.0" width="355" height="48.0" rx="8" fill="#ffffff" stroke="#8b97a8" stroke-width="1.2"/></g>
<title>roster_unit_enhancement</title>
<text x="1451.0" y="1807.0" font-family="Inter, Arial, sans-serif" font-size="14" font-weight="700" fill="#1f2937">roster_unit_enhancement</text>
<g filter="url(#shadow)"><rect x="980.0" y="1866.0" width="355" height="48.0" rx="8" fill="#ffffff" stroke="#8b97a8" stroke-width="1.2"/></g>
<title>roster_attached_unit</title>
<text x="996.0" y="1895.0" font-family="Inter, Arial, sans-serif" font-size="14" font-weight="700" fill="#1f2937">roster_attached_unit</text>
<g filter="url(#shadow)"><rect x="1435.0" y="1948.0" width="355" height="60.0" rx="8" fill="#ffffff" stroke="#8b97a8" stroke-width="1.2"/></g>
<title>primary_mission -&gt; objectives -&gt; scoring</title>
<text x="1451.0" y="1974.0" font-family="Inter, Arial, sans-serif" font-size="14" font-weight="700" fill="#1f2937">primary_mission -&gt; objectives</text>
<text x="1451.0" y="1992.0" font-family="Inter, Arial, sans-serif" font-size="12" font-weight="500" fill="#475467">-&gt; scoring</text>
<g filter="url(#shadow)"><rect x="980.0" y="2036.0" width="355" height="60.0" rx="8" fill="#ffffff" stroke="#8b97a8" stroke-width="1.2"/></g>
<title>mission_pack
2</title>
<text x="996.0" y="2062.0" font-family="Inter, Arial, sans-serif" font-size="14" font-weight="700" fill="#1f2937">mission_pack</text>
<text x="996.0" y="2080.0" font-family="Inter, Arial, sans-serif" font-size="12" font-weight="500" fill="#475467">2</text>
<g filter="url(#shadow)"><rect x="1435.0" y="2036.0" width="355" height="60.0" rx="8" fill="#ffffff" stroke="#8b97a8" stroke-width="1.2"/></g>
<title>secondary_mission -&gt; objectives -&gt; scoring</title>
<text x="1451.0" y="2062.0" font-family="Inter, Arial, sans-serif" font-size="14" font-weight="700" fill="#1f2937">secondary_mission -&gt;</text>
<text x="1451.0" y="2080.0" font-family="Inter, Arial, sans-serif" font-size="12" font-weight="500" fill="#475467">objectives -&gt; scoring</text>
<g filter="url(#shadow)"><rect x="1435.0" y="2124.0" width="355" height="60.0" rx="8" fill="#ffffff" stroke="#8b97a8" stroke-width="1.2"/></g>
<title>layouts / deployments / presets / twists</title>
<text x="1451.0" y="2150.0" font-family="Inter, Arial, sans-serif" font-size="14" font-weight="700" fill="#1f2937">layouts / deployments / presets</text>
<text x="1451.0" y="2168.0" font-family="Inter, Arial, sans-serif" font-size="12" font-weight="500" fill="#475467">/ twists</text>
<g filter="url(#shadow)"><rect x="525.0" y="2174.0" width="355" height="48.0" rx="8" fill="#ffffff" stroke="#8b97a8" stroke-width="1.2"/></g>
<title>Missions + battles</title>
<text x="541.0" y="2203.0" font-family="Inter, Arial, sans-serif" font-size="14" font-weight="700" fill="#1f2937">Missions + battles</text>
<g filter="url(#shadow)"><rect x="980.0" y="2212.0" width="355" height="60.0" rx="8" fill="#ffffff" stroke="#8b97a8" stroke-width="1.2"/></g>
<title>battle
1</title>
<text x="996.0" y="2238.0" font-family="Inter, Arial, sans-serif" font-size="14" font-weight="700" fill="#1f2937">battle</text>
<text x="996.0" y="2256.0" font-family="Inter, Arial, sans-serif" font-size="12" font-weight="500" fill="#475467">1</text>
<g filter="url(#shadow)"><rect x="1435.0" y="2212.0" width="355" height="60.0" rx="8" fill="#ffffff" stroke="#8b97a8" stroke-width="1.2"/></g>
<title>battle_player
2</title>
<text x="1451.0" y="2238.0" font-family="Inter, Arial, sans-serif" font-size="14" font-weight="700" fill="#1f2937">battle_player</text>
<text x="1451.0" y="2256.0" font-family="Inter, Arial, sans-serif" font-size="12" font-weight="500" fill="#475467">2</text>
<g filter="url(#shadow)"><rect x="1890.0" y="2212.0" width="355" height="60.0" rx="8" fill="#ffffff" stroke="#8b97a8" stroke-width="1.2"/></g>
<title>battle_player_turn
10</title>
<text x="1906.0" y="2238.0" font-family="Inter, Arial, sans-serif" font-size="14" font-weight="700" fill="#1f2937">battle_player_turn</text>
<text x="1906.0" y="2256.0" font-family="Inter, Arial, sans-serif" font-size="12" font-weight="500" fill="#475467">10</text>
<g filter="url(#shadow)"><rect x="2345.0" y="2218.0" width="355" height="48.0" rx="8" fill="#ffffff" stroke="#8b97a8" stroke-width="1.2"/></g>
<title>scored primary/secondary</title>
<text x="2361.0" y="2247.0" font-family="Inter, Arial, sans-serif" font-size="14" font-weight="700" fill="#1f2937">scored primary/secondary</text>
<g filter="url(#shadow)"><rect x="980.0" y="2300.0" width="355" height="60.0" rx="8" fill="#ffffff" stroke="#8b97a8" stroke-width="1.2"/></g>
<title>force_disposition
5</title>
<text x="996.0" y="2326.0" font-family="Inter, Arial, sans-serif" font-size="14" font-weight="700" fill="#1f2937">force_disposition</text>
<text x="996.0" y="2344.0" font-family="Inter, Arial, sans-serif" font-size="12" font-weight="500" fill="#475467">5</text>
<g filter="url(#shadow)"><rect x="980.0" y="2388.0" width="355" height="60.0" rx="8" fill="#ffffff" stroke="#8b97a8" stroke-width="1.2"/></g>
<title>keyword
1,239</title>
<text x="996.0" y="2414.0" font-family="Inter, Arial, sans-serif" font-size="14" font-weight="700" fill="#1f2937">keyword</text>
<text x="996.0" y="2432.0" font-family="Inter, Arial, sans-serif" font-size="12" font-weight="500" fill="#475467">1,239</text>
<g filter="url(#shadow)"><rect x="980.0" y="2476.0" width="355" height="60.0" rx="8" fill="#ffffff" stroke="#8b97a8" stroke-width="1.2"/></g>
<title>datasheet_ability
2,025</title>
<text x="996.0" y="2502.0" font-family="Inter, Arial, sans-serif" font-size="14" font-weight="700" fill="#1f2937">datasheet_ability</text>
<text x="996.0" y="2520.0" font-family="Inter, Arial, sans-serif" font-size="12" font-weight="500" fill="#475467">2,025</text>
<g filter="url(#shadow)"><rect x="1435.0" y="2476.0" width="355" height="60.0" rx="8" fill="#ffffff" stroke="#8b97a8" stroke-width="1.2"/></g>
<title>datasheet_sub_ability
52</title>
<text x="1451.0" y="2502.0" font-family="Inter, Arial, sans-serif" font-size="14" font-weight="700" fill="#1f2937">datasheet_sub_ability</text>
<text x="1451.0" y="2520.0" font-family="Inter, Arial, sans-serif" font-size="12" font-weight="500" fill="#475467">52</text>
<g filter="url(#shadow)"><rect x="980.0" y="2564.0" width="355" height="60.0" rx="8" fill="#ffffff" stroke="#8b97a8" stroke-width="1.2"/></g>
<title>wargear_item
3,516</title>
<text x="996.0" y="2590.0" font-family="Inter, Arial, sans-serif" font-size="14" font-weight="700" fill="#1f2937">wargear_item</text>
<text x="996.0" y="2608.0" font-family="Inter, Arial, sans-serif" font-size="12" font-weight="500" fill="#475467">3,516</text>
<g filter="url(#shadow)"><rect x="1435.0" y="2564.0" width="355" height="60.0" rx="8" fill="#ffffff" stroke="#8b97a8" stroke-width="1.2"/></g>
<title>wargear_item_profile
3,712</title>
<text x="1451.0" y="2590.0" font-family="Inter, Arial, sans-serif" font-size="14" font-weight="700" fill="#1f2937">wargear_item_profile</text>
<text x="1451.0" y="2608.0" font-family="Inter, Arial, sans-serif" font-size="12" font-weight="500" fill="#475467">3,712</text>
<g filter="url(#shadow)"><rect x="1890.0" y="2564.0" width="355" height="60.0" rx="8" fill="#ffffff" stroke="#8b97a8" stroke-width="1.2"/></g>
<title>wargear_ability
121</title>
<text x="1906.0" y="2590.0" font-family="Inter, Arial, sans-serif" font-size="14" font-weight="700" fill="#1f2937">wargear_ability</text>
<text x="1906.0" y="2608.0" font-family="Inter, Arial, sans-serif" font-size="12" font-weight="500" fill="#475467">121</text>
<g filter="url(#shadow)"><rect x="525.0" y="2570.0" width="355" height="48.0" rx="8" fill="#ffffff" stroke="#8b97a8" stroke-width="1.2"/></g>
<title>Shared lookups</title>
<text x="541.0" y="2599.0" font-family="Inter, Arial, sans-serif" font-size="14" font-weight="700" fill="#1f2937">Shared lookups</text>
<g filter="url(#shadow)"><rect x="980.0" y="2652.0" width="355" height="60.0" rx="8" fill="#ffffff" stroke="#8b97a8" stroke-width="1.2"/></g>
<title>battle_size
3</title>
<text x="996.0" y="2678.0" font-family="Inter, Arial, sans-serif" font-size="14" font-weight="700" fill="#1f2937">battle_size</text>
<text x="996.0" y="2696.0" font-family="Inter, Arial, sans-serif" font-size="12" font-weight="500" fill="#475467">3</text>
<g filter="url(#shadow)"><rect x="980.0" y="2740.0" width="355" height="60.0" rx="8" fill="#ffffff" stroke="#8b97a8" stroke-width="1.2"/></g>
<title>behaviour_type
19</title>
<text x="996.0" y="2766.0" font-family="Inter, Arial, sans-serif" font-size="14" font-weight="700" fill="#1f2937">behaviour_type</text>
<text x="996.0" y="2784.0" font-family="Inter, Arial, sans-serif" font-size="12" font-weight="500" fill="#475467">19</text>
</svg>